ffmpeg version 8.0-full_build-www.gyan.dev Copyright (c) 2000-2025 the FFmpeg developers
  built with gcc 15.2.0 (Rev8, Built by MSYS2 project)
  configuration: --enable-gpl --enable-version3 --enable-static --disable-w32threads --disable-autodetect --enable-fontconfig --enable-iconv --enable-gnutls --enable-lcms2 --enable-libxml2 --enable-gmp --enable-bzlib --enable-lzma --enable-libsnappy --enable-zlib --enable-librist --enable-libsrt --enable-libssh --enable-libzmq --enable-avisynth --enable-libbluray --enable-libcaca --enable-libdvdnav --enable-libdvdread --enable-sdl2 --enable-libaribb24 --enable-libaribcaption --enable-libdav1d --enable-libdavs2 --enable-libopenjpeg --enable-libquirc --enable-libuavs3d --enable-libxevd --enable-libzvbi --enable-liboapv --enable-libqrencode --enable-librav1e --enable-libsvtav1 --enable-libvvenc --enable-libwebp --enable-libx264 --enable-libx265 --enable-libxavs2 --enable-libxeve --enable-libxvid --enable-libaom --enable-libjxl --enable-libvpx --enable-mediafoundation --enable-libass --enable-frei0r --enable-libfreetype --enable-libfribidi --enable-libharfbuzz --enable-liblensfun --enable-libvidstab --enable-libvmaf --enable-libzimg --enable-amf --enable-cuda-llvm --enable-cuvid --enable-dxva2 --enable-d3d11va --enable-d3d12va --enable-ffnvcodec --enable-libvpl --enable-nvdec --enable-nvenc --enable-vaapi --enable-libshaderc --enable-vulkan --enable-libplacebo --enable-opencl --enable-libcdio --enable-openal --enable-libgme --enable-libmodplug --enable-libopenmpt --enable-libopencore-amrwb --enable-libmp3lame --enable-libshine --enable-libtheora --enable-libtwolame --enable-libvo-amrwbenc --enable-libcodec2 --enable-libilbc --enable-libgsm --enable-liblc3 --enable-libopencore-amrnb --enable-libopus --enable-libspeex --enable-libvorbis --enable-ladspa --enable-libbs2b --enable-libflite --enable-libmysofa --enable-librubberband --enable-libsoxr --enable-chromaprint --enable-whisper
  libavutil      60.  8.100 / 60.  8.100
  libavcodec     62. 11.100 / 62. 11.100
  libavformat    62.  3.100 / 62.  3.100
  libavdevice    62.  1.100 / 62.  1.100
  libavfilter    11.  4.100 / 11.  4.100
  libswscale      9.  1.100 /  9.  1.100
  libswresample   6.  1.100 /  6.  1.100
Input #0, png_pipe, from 'C:\Users\victo\Desktop\0_Programmering\02_Websites\Kvitto\webdev\work_in_progress\whispering_wilds\preview.png':
  Duration: N/A, bitrate: N/A
  Stream #0:0: Video: png, rgba(pc, gbr/bt709/iec61966-2-1), 1913x916 [SAR 3779:3779 DAR 1913:916], 25 fps, 25 tbr, 25 tbn
Stream mapping:
  Stream #0:0 -> #0:0 (png (native) -> webp (libwebp))
Press [q] to stop, [?] for help
Output #0, webp, to 'C:\Users\victo\Desktop\0_Programmering\02_Websites\Kvitto\webdev\work_in_progress\whispering_wilds\preview.webp':
  Metadata:
    encoder         : Lavf62.3.100
  Stream #0:0: Video: webp, bgra(pc, gbr/bt709/iec61966-2-1, progressive), 1913x916 [SAR 1:1 DAR 1913:916], q=2-31, 200 kb/s, 25 fps, 1k tbn
    Metadata:
      encoder         : Lavc62.11.100 libwebp
[libwebp @ 0000022a7865a500] Using libwebp for RGB-to-YUV conversion. You may want to consider passing in YUV instead for lossy encoding.
[out#0/webp @ 0000022a78660a80] video:11KiB audio:0KiB subtitle:0KiB other streams:0KiB global headers:0KiB muxing overhead: 0.000000%
frame=    1 fps=0.0 q=-0.0 Lsize=      11KiB time=00:00:00.04 bitrate=2342.8kbits/s speed=0.793x elapsed=0:00:00.05    
